<svg id="Capa_1" enable-background="new 0 0 512 512" height="512" viewBox="0 0 512 512" width="512" xmlns="http://www.w3.org/2000/svg"><g><g><g><path d="m0 .344v394.058h199.221l56.779 117.254 48.432-287.985-48.432-223.327z" fill="#ecfaff"/><path d="m256 .344v511.312l56.779-117.254h199.221v-394.058z" fill="#c4e6fe"/></g><g><g><path d="m56.832 152.557c0 52.04 42.186 94.226 94.226 94.226l16.48-93.97-16.48-94.482c-52.04.001-94.226 42.187-94.226 94.226z" fill="#f37"/><path d="m151.058 58.332v188.452c52.04 0 94.226-42.186 94.226-94.226s-42.187-94.226-94.226-94.226z" fill="#cc295f"/></g><g><path d="m129.358 109.622-21.236 21.236 21.699 21.699-21.699 21.7 21.236 21.236 21.7-21.7 16.323-21.236-16.323-21.236z" fill="#cc295f"/><path d="m193.993 130.858-21.236-21.236-21.699 21.699v42.472l21.699 21.7 21.236-21.236-21.699-21.7z" fill="#991f48"/></g></g></g><g><path d="m81.615 284.407v30h174.385l10.004-15-10.004-15z" fill="#c4e6fe"/><path d="m256 284.407h174.385v30h-174.385z" fill="#a6caee"/></g><g><path d="m241 257.263v83.212h15l10.004-41.068-10.004-42.144z" fill="#80d4ff"/><path d="m256 257.263h15v83.212h-15z" fill="#6daafc"/></g><g><path d="m267.995 152.557c0 52.04 42.186 94.226 94.226 94.226l16.48-93.97-16.48-94.482c-52.04.001-94.226 42.187-94.226 94.226z" fill="#73f"/><path d="m362.221 58.332v188.452c52.04 0 94.226-42.186 94.226-94.226s-42.187-94.226-94.226-94.226z" fill="#5f29cc"/></g><g><path d="m353.717 148.561-17.25-17.25-21.213 21.213 38.463 38.463 8.504-8.504 9.748-29.926-9.748-12.5z" fill="#5f29cc"/><path d="m393.786 108.491-31.565 31.566v42.426l52.778-52.779z" fill="#3c1980"/></g></g></svg>